<?xml version="1.0" encoding="iso-8859-1"?>
<!-- Generator: Adobe Illustrator 16.0.4, SVG Export Plug-In . SVG Version: 6.00 Build 0)  -->
<!DOCTYPE svg PUBLIC "-//W3C//DTD SVG 1.1//EN" "http://www.w3.org/Graphics/SVG/1.1/DTD/svg11.dtd">
<svg version="1.1" id="Layer_1" xmlns="http://www.w3.org/2000/svg" xmlns:xlink="http://www.w3.org/1999/xlink" x="0px" y="0px"
	 width="35.002px" height="22.99px" viewBox="0 0 35.002 22.99" style="enable-background:new 0 0 35.002 22.99;"
	 xml:space="preserve">
<g id="audio">
	<polygon points="21.745,22.99 20.265,22.98 17.494,4.998 15.496,17.732 14.014,17.734 12.465,8.057 10.208,14.128 8.817,14.165 
		7.048,10.096 6.455,11.641 5.755,12.122 0,12.122 0,10.622 5.239,10.622 6.305,7.847 7.693,7.817 9.451,11.86 12.052,4.863 
		13.496,5.005 14.748,12.825 16.759,0 18.241,0.002 21.038,18.149 23.669,2.492 25.121,2.383 28.379,12.344 30.281,10.791 
		30.756,10.622 35.002,10.622 35.002,12.122 31.023,12.122 28.48,14.197 27.293,13.85 24.643,5.746 	"/>
</g>
<g id="Layer_1_1_">
</g>
</svg>
